<?xml version="1.0" encoding="utf-8"?>
<!-- Generator: Adobe Illustrator 23.0.1, SVG Export Plug-In . SVG Version: 6.00 Build 0)  -->
<svg version="1.1" id="" xmlns="http://www.w3.org/2000/svg" xmlns:xlink="http://www.w3.org/1999/xlink" x="0px"
	 y="0px" viewBox="0 0 44 42" style="enable-background:new 0 0 44 42;" xml:space="preserve">
<style type="text/css">
	.st0{fill:#FFFFFF;}
</style>
<path class="st0" d="M44.1,17.8C44.1,8,34.2,0,22,0C9.9,0,0,8,0,17.8c0,8.8,7.8,16.1,18.4,17.5c0.7,0.2,1.7,0.5,1.9,1.1
	c0.2,0.6,0.2,1.3,0.1,2c0,0-0.3,1.5-0.3,1.9c-0.1,0.6-0.4,2.2,1.9,1.2c6.4-3.3,12.2-7.6,17.3-12.7C42.3,25.8,44,21.9,44.1,17.8
	L44.1,17.8z M14.3,23c0,0.2-0.2,0.4-0.4,0.4H7.6c-0.1,0-0.2,0-0.3-0.1c-0.1-0.1-0.1-0.2-0.1-0.3v-9.5c0-0.2,0.2-0.4,0.4-0.4h1.5
	c0.2,0,0.4,0.2,0.4,0.4V21h4.2v0c0.2,0,0.4,0.2,0.4,0.4V23z M18,23c0,0.2-0.2,0.4-0.4,0.4H16c-0.2,0-0.4-0.2-0.4-0.4v-9.5
	c0-0.2,0.2-0.4,0.4-0.4h1.5c0.2,0,0.4,0.2,0.4,0.4V23z M28.6,23c0,0.2-0.2,0.4-0.4,0.4h-1.6c0,0-0.1,0-0.1,0h0h0h0l0,0h0l0,0
	c0,0-0.1-0.1-0.1-0.1l-4.4-5.9V23c0,0,0,0,0,0c0,0.2-0.2,0.4-0.4,0.4h-1.5c-0.2,0-0.4-0.2-0.4-0.4v-9.5c0-0.2,0.2-0.4,0.4-0.4h1.6h0
	h0h0h0l0,0h0l0,0h0l0,0h0l0,0l0,0c0,0,0,0,0,0l4.4,5.9v-5.7c0,0,0,0,0,0c0-0.2,0.2-0.4,0.4-0.4h1.5v0c0.2,0,0.4,0.2,0.4,0.4V23z
	 M37.2,15c0,0.2-0.2,0.4-0.4,0.4l-4.2,0V17h4.2c0,0,0,0,0,0c0.2,0,0.4,0.2,0.4,0.4V19c0,0.2-0.2,0.4-0.4,0.4h-4.2V21h4.2
	c0.2,0,0.4,0.2,0.4,0.4v1.5c0,0.2-0.2,0.4-0.4,0.4h-6.2c-0.1,0-0.2,0-0.3-0.1c-0.1-0.1-0.1-0.2-0.1-0.3v-9.5c0-0.1,0-0.2,0.1-0.3
	c0.1-0.1,0.2-0.1,0.3-0.1h6.2c0,0,0,0,0,0c0.2,0,0.4,0.2,0.4,0.4V15z"/>
</svg>
