<?xml version="1.0" encoding="utf-8"?>
<!-- Generator: Adobe Illustrator 23.0.1, SVG Export Plug-In . SVG Version: 6.00 Build 0)  -->
<svg version="1.1" id="レイヤー_1" xmlns="http://www.w3.org/2000/svg" xmlns:xlink="http://www.w3.org/1999/xlink" x="0px"
	 y="0px" viewBox="0 0 44 44" style="enable-background:new 0 0 44 44;" xml:space="preserve">
<style type="text/css">
	.st0{fill:#FFFFFF;}
</style>
<path class="st0" d="M41.6,0H2.4C1.1,0,0,1.1,0,2.4v39.1C0,42.9,1.1,44,2.4,44h21.1V27h-5.8v-6.7h5.7v-4.9c0-5.7,3.5-8.8,8.5-8.8
	c1.7,0,3.4,0.1,5.2,0.3v5.9h-3.5c-2.8,0-3.3,1.3-3.3,3.2v4.2H37L36.1,27h-5.7v17h11.2c1.3,0,2.4-1.1,2.4-2.4l0,0V2.4
	C44,1.1,42.9,0,41.6,0z"/>
</svg>
